<mxfile host="app.diagrams.net" modified="2022-06-13T22:15:42.211Z" agent="5.0 (Windows NT 10.0; Win64; x64) AppleWebKit/537.36 (KHTML, like Gecko) Chrome/102.0.5005.63 Safari/537.36" etag="Os4_OYsFZV8NFWl6at2H" version="20.0.1" type="github">
  <diagram id="9J2zopABam14oHIKrcXx" name="Page-1">
    <mxGraphModel dx="868" dy="450" grid="1" gridSize="10" guides="1" tooltips="1" connect="1" arrows="1" fold="1" page="1" pageScale="1" pageWidth="827" pageHeight="1169" math="0" shadow="0">
      <root>
        <mxCell id="0" />
        <mxCell id="1" parent="0" />
        <mxCell id="DQBUXsGXBoWnX04OJNrh-5" value="dispatch" style="html=1;verticalAlign=bottom;endArrow=block;entryX=0;entryY=0;rounded=0;" parent="1" source="DQBUXsGXBoWnX04OJNrh-3" target="DQBUXsGXBoWnX04OJNrh-4" edge="1">
          <mxGeometry relative="1" as="geometry">
            <mxPoint x="300" y="190" as="sourcePoint" />
            <Array as="points">
              <mxPoint x="350" y="190" />
            </Array>
          </mxGeometry>
        </mxCell>
        <mxCell id="DQBUXsGXBoWnX04OJNrh-6" value="return" style="html=1;verticalAlign=bottom;endArrow=open;dashed=1;endSize=8;exitX=0;exitY=0.95;rounded=0;" parent="1" source="DQBUXsGXBoWnX04OJNrh-4" edge="1">
          <mxGeometry relative="1" as="geometry">
            <mxPoint x="180" y="266" as="targetPoint" />
          </mxGeometry>
        </mxCell>
        <mxCell id="DQBUXsGXBoWnX04OJNrh-7" value=":Object" style="shape=umlLifeline;perimeter=lifelinePerimeter;whiteSpace=wrap;html=1;container=1;collapsible=0;recursiveResize=0;outlineConnect=0;" parent="1" vertex="1">
          <mxGeometry x="380" y="30" width="100" height="300" as="geometry" />
        </mxCell>
        <mxCell id="DQBUXsGXBoWnX04OJNrh-4" value="" style="html=1;points=[];perimeter=orthogonalPerimeter;" parent="DQBUXsGXBoWnX04OJNrh-7" vertex="1">
          <mxGeometry x="45" y="160" width="10" height="80" as="geometry" />
        </mxCell>
        <mxCell id="DQBUXsGXBoWnX04OJNrh-8" value=":Object" style="shape=umlLifeline;perimeter=lifelinePerimeter;whiteSpace=wrap;html=1;container=1;collapsible=0;recursiveResize=0;outlineConnect=0;" parent="1" vertex="1">
          <mxGeometry x="120" y="30" width="100" height="300" as="geometry" />
        </mxCell>
        <mxCell id="DQBUXsGXBoWnX04OJNrh-3" value="" style="html=1;points=[];perimeter=orthogonalPerimeter;" parent="DQBUXsGXBoWnX04OJNrh-8" vertex="1">
          <mxGeometry x="45" y="150" width="10" height="90" as="geometry" />
        </mxCell>
      </root>
    </mxGraphModel>
  </diagram>
</mxfile>
